<svg xmlns="http://www.w3.org/2000/svg" width="18" height="18" viewBox="0 0 18 18"><svg xmlns:xlink="http://www.w3.org/1999/xlink" id="search" width="18" height="18" x="0" y="0" version="1.1" viewBox="1 74 18 18"><g id="search-Layer_8"><path fill="#666" d="m12.007 77.675c2.059 2.059 2.057 5.392-0.005 7.445-2.06 2.055-5.398 2.053-7.458-0.005-2.061-2.058-2.059-5.39 0.003-7.445s5.401-2.052 7.46 0.005z"/><path fill="#fff" d="m10.646 79.031c1.309 1.308 1.307 3.427-0.002 4.732s-3.431 1.304-4.739-0.004c-1.309-1.307-1.308-3.425 0.003-4.73 1.308-1.305 3.43-1.303 4.738 0.002z"/><path fill="#666" d="m16.708 88.418c0.389 0.388 0.389 1.017 0 1.404-0.39 0.389-1.019 0.388-1.408-0.001l-4.361-4.358c-0.39-0.39-0.39-1.018 0-1.405 0.389-0.387 1.019-0.387 1.408 0l4.361 4.36z"/></g></svg></svg>