<?xml version="1.0"?>
<!--Icons from directory ""-->
<svg xmlns="http://www.w3.org/2000/svg" width="32" height="468" viewBox="0 0 32 468"><svg xmlns:xlink="http://www.w3.org/1999/xlink" enable-background="new 0 0 27.996 27.996" xml:space="preserve" height="32" width="32" version="1.1" y="0" x="0px" viewBox="-2 -2 31.996 31.996" id="icn_vocablist__alphabet_active"><g id="icn_vocablist__alphabet_active-Layer_8">		<circle cy="13.998" cx="13.998" r="13.998" fill="#0070E0"/>					<g fill="#fff">						<path d="m9.526 15.365h-2.986l-0.72 2.183h-1.595l2.998-8.516h1.619l2.999 8.516h-1.595l-0.72-2.183zm-1.499-4.857s-0.192 0.84-0.36 1.319l-0.755 2.278h2.23l-0.755-2.278c-0.156-0.479-0.336-1.319-0.336-1.319h-0.024z"/>						<path d="m12.529 13.458h3.61v1.331h-3.61v-1.331z"/>						<path d="m17.005 16.553l3.778-5.421c0.335-0.492 0.624-0.768 0.624-0.768v-0.024s-0.24 0.024-0.636 0.024h-3.574v-1.332h6.153v0.983l-3.778 5.434c-0.336 0.491-0.624 0.768-0.624 0.768v0.023s0.24-0.023 0.636-0.023h3.814v1.331h-6.393v-0.995z"/>					</g></g></svg><svg xmlns:xlink="http://www.w3.org/1999/xlink" enable-background="new 0 0 27.996 27.996" xml:space="preserve" height="32" width="32" version="1.1" y="32" x="0px" viewBox="-2 -2 31.996 31.996" id="icn_vocablist__alphabet_hover"><g id="icn_vocablist__alphabet_hover-Layer_8">		<circle cy="13.998" cx="13.998" r="13.998" fill="#B6C8DF"/>		<circle opacity=".2" cy="13.998" cx="13.998" r="13.998"/>			<g fill="#fff">				<path d="m9.526 15.276h-2.986l-0.72 2.183h-1.595l2.998-8.516h1.619l2.999 8.516h-1.595l-0.72-2.183zm-1.499-4.857s-0.192 0.84-0.36 1.319l-0.755 2.278h2.23l-0.755-2.278c-0.156-0.479-0.336-1.319-0.336-1.319h-0.024z"/>				<path d="m12.529 13.369h3.61v1.331h-3.61v-1.331z"/>				<path d="m17.005 16.463l3.778-5.421c0.335-0.492 0.624-0.768 0.624-0.768v-0.024s-0.24 0.024-0.636 0.024h-3.574v-1.331h6.153v0.983l-3.778 5.434c-0.336 0.491-0.624 0.768-0.624 0.768v0.023s0.24-0.023 0.636-0.023h3.814v1.331h-6.393v-0.996z"/>			</g></g></svg><svg xmlns:xlink="http://www.w3.org/1999/xlink" enable-background="new 0 0 27.996 27.996" xml:space="preserve" height="32" width="32" version="1.1" y="64" x="0px" viewBox="-2 -2 31.996 31.996" id="icn_vocablist__alphabet_normal"><g id="icn_vocablist__alphabet_normal-Layer_8">		<circle cy="13.998" cx="13.998" r="13.998" fill="#B6C8DF"/>			<g fill="#fff">				<path d="m9.868 15.276h-2.986l-0.72 2.183h-1.595l2.998-8.516h1.619l2.999 8.516h-1.595l-0.72-2.183zm-1.499-4.857s-0.192 0.84-0.36 1.319l-0.755 2.278h2.23l-0.755-2.278c-0.156-0.479-0.336-1.319-0.336-1.319h-0.024z"/>				<path d="m12.871 13.369h3.61v1.331h-3.61v-1.331z"/>				<path d="m17.347 16.463l3.778-5.421c0.335-0.492 0.624-0.768 0.624-0.768v-0.024s-0.24 0.024-0.636 0.024h-3.574v-1.331h6.153v0.983l-3.778 5.434c-0.336 0.491-0.624 0.768-0.624 0.768v0.023s0.24-0.023 0.636-0.023h3.814v1.331h-6.393v-0.996z"/>			</g></g></svg><svg xmlns:xlink="http://www.w3.org/1999/xlink" enable-background="new 0 0 27.996 27.996" xml:space="preserve" height="32" width="32" version="1.1" y="96" x="0px" viewBox="-2 -2 31.996 31.996" id="icn_vocablist__newest_active"><g id="icn_vocablist__newest_active-Layer_8">		<circle cy="13.998" cx="13.998" r="13.998" fill="#0070E0"/>		<g id="icn_vocablist__newest_active-Forma_1_20_">				<path fill="#fff" clip-rule="evenodd" d="m18.506 13.403h-4.028v-5.279c0-0.265-0.218-0.476-0.483-0.476s-0.476 0.211-0.476 0.476v5.836l0.007 0.007v0.027l0.007 0.014v0.007l0.007 0.014v0.014l0.007 0.007 0.007 0.014v0.007l0.014 0.027v0.007l0.007 0.014 0.007 0.007c0.081 0.143 0.238 0.245 0.415 0.245h4.511c0.265 0 0.476-0.218 0.476-0.483s-0.213-0.485-0.478-0.485zm1.748-5.776c-1.605-1.599-3.816-2.592-6.259-2.592-2.442 0-4.653 0.993-6.252 2.592-1.606 1.606-2.592 3.817-2.592 6.259 0 2.443 0.987 4.653 2.592 6.259 1.599 1.599 3.809 2.592 6.252 2.592 2.442 0 4.653-0.993 6.259-2.592 1.599-1.606 2.592-3.817 2.592-6.259s-0.994-4.654-2.592-6.259zm-0.681 11.838c-1.429 1.429-3.401 2.306-5.578 2.306s-4.15-0.878-5.578-2.306c-1.422-1.429-2.306-3.402-2.306-5.579s0.885-4.15 2.306-5.578c1.429-1.429 3.401-2.306 5.578-2.306s4.15 0.878 5.578 2.306c1.429 1.429 2.313 3.401 2.313 5.578 0.001 2.177-0.884 4.15-2.313 5.579z" fill-rule="evenodd"/>		</g></g></svg><svg xmlns:xlink="http://www.w3.org/1999/xlink" enable-background="new 0 0 27.996 27.996" xml:space="preserve" height="32" width="32" version="1.1" y="128" x="0px" viewBox="-2 -2 31.996 31.996" id="icn_vocablist__newest_hover"><g id="icn_vocablist__newest_hover-Layer_8">		<circle cy="13.998" cx="13.998" r="13.998" fill="#B6C8DF"/>		<circle opacity=".2" cy="13.998" cx="13.998" r="13.998"/>		<g id="icn_vocablist__newest_hover-Forma_1_19_">				<path fill="#fff" clip-rule="evenodd" d="m18.506 13.403h-4.028v-5.279c0-0.265-0.218-0.476-0.483-0.476s-0.476 0.211-0.476 0.476v5.836l0.007 0.007v0.027l0.007 0.014v0.007l0.007 0.014v0.014l0.007 0.007 0.007 0.014v0.007l0.014 0.027v0.007l0.007 0.014 0.007 0.007c0.081 0.143 0.238 0.245 0.415 0.245h4.511c0.265 0 0.476-0.218 0.476-0.483s-0.213-0.485-0.478-0.485zm1.748-5.776c-1.605-1.599-3.816-2.592-6.259-2.592-2.442 0-4.653 0.993-6.252 2.592-1.606 1.606-2.592 3.817-2.592 6.259 0 2.443 0.987 4.653 2.592 6.259 1.599 1.599 3.809 2.592 6.252 2.592 2.442 0 4.653-0.993 6.259-2.592 1.599-1.606 2.592-3.817 2.592-6.259s-0.994-4.654-2.592-6.259zm-0.681 11.838c-1.429 1.429-3.401 2.306-5.578 2.306s-4.15-0.878-5.578-2.306c-1.422-1.429-2.306-3.402-2.306-5.579s0.885-4.15 2.306-5.578c1.429-1.429 3.401-2.306 5.578-2.306s4.15 0.878 5.578 2.306c1.429 1.429 2.313 3.401 2.313 5.578 0.001 2.177-0.884 4.15-2.313 5.579z" fill-rule="evenodd"/>		</g></g></svg><svg xmlns:xlink="http://www.w3.org/1999/xlink" enable-background="new 0 0 27.996 27.996" xml:space="preserve" height="32" width="32" version="1.1" y="160" x="0px" viewBox="-2 -2 31.996 31.996" id="icn_vocablist__newest_normal"><g id="icn_vocablist__newest_normal-Layer_8">		<circle cy="13.998" cx="13.998" r="13.998" fill="#B6C8DF"/>		<g id="icn_vocablist__newest_normal-Forma_1_16_">				<path fill="#fff" clip-rule="evenodd" d="m18.506 13.403h-4.028v-5.279c0-0.265-0.218-0.476-0.483-0.476s-0.476 0.211-0.476 0.476v5.836l0.007 0.007v0.027l0.007 0.014v0.007l0.007 0.014v0.014l0.007 0.007 0.007 0.014v0.007l0.014 0.027v0.007l0.007 0.014 0.007 0.007c0.081 0.143 0.238 0.245 0.415 0.245h4.511c0.265 0 0.476-0.218 0.476-0.483s-0.213-0.485-0.478-0.485zm1.748-5.776c-1.605-1.599-3.816-2.592-6.259-2.592-2.442 0-4.653 0.993-6.252 2.592-1.606 1.606-2.592 3.817-2.592 6.259 0 2.443 0.987 4.653 2.592 6.259 1.599 1.599 3.809 2.592 6.252 2.592 2.442 0 4.653-0.993 6.259-2.592 1.599-1.606 2.592-3.817 2.592-6.259s-0.994-4.654-2.592-6.259zm-0.681 11.838c-1.429 1.429-3.401 2.306-5.578 2.306s-4.15-0.878-5.578-2.306c-1.422-1.429-2.306-3.402-2.306-5.579s0.885-4.15 2.306-5.578c1.429-1.429 3.401-2.306 5.578-2.306s4.15 0.878 5.578 2.306c1.429 1.429 2.313 3.401 2.313 5.578 0.001 2.177-0.884 4.15-2.313 5.579z" fill-rule="evenodd"/>		</g></g></svg><svg xmlns:xlink="http://www.w3.org/1999/xlink" enable-background="new 0 0 27.996 27.996" xml:space="preserve" height="32" width="32" version="1.1" y="192" x="0px" viewBox="-2 -2 31.996 31.996" id="icn_vocablist__popular_active"><g id="icn_vocablist__popular_active-Layer_8">		<circle cy="13.998" cx="13.998" r="13.998" fill="#0070E0"/>		<path d="m13.958 5.488l2.282 4.625c0.033 0.067 0.097 0.114 0.172 0.125l5.104 0.742c0.187 0.027 0.262 0.257 0.126 0.389l-3.693 3.6c-0.054 0.052-0.078 0.128-0.066 0.202l0.872 5.083c0.032 0.186-0.164 0.328-0.331 0.24l-4.565-2.4c-0.066-0.035-0.146-0.035-0.212 0l-4.565 2.4c-0.167 0.088-0.363-0.054-0.331-0.24l0.872-5.083c0.013-0.074-0.012-0.149-0.066-0.202l-3.693-3.6c-0.135-0.132-0.061-0.362 0.126-0.389l5.104-0.742c0.074-0.011 0.138-0.057 0.172-0.125l2.282-4.625c0.085-0.169 0.326-0.169 0.41 0z" fill="#fff"/></g></svg><svg xmlns:xlink="http://www.w3.org/1999/xlink" enable-background="new 0 0 27.996 27.996" xml:space="preserve" height="32" width="32" version="1.1" y="224" x="0px" viewBox="-2 -2 31.996 31.996" id="icn_vocablist__popular_hover"><g id="icn_vocablist__popular_hover-Layer_8">		<circle cy="13.998" cx="13.998" r="13.998" fill="#B6C8DF"/>		<circle opacity=".2" cy="13.998" cx="13.998" r="13.998"/>		<path d="m13.628 5.691l2.282 4.625c0.033 0.067 0.097 0.114 0.172 0.125l5.104 0.742c0.187 0.027 0.262 0.257 0.126 0.389l-3.693 3.6c-0.054 0.052-0.078 0.128-0.066 0.202l0.872 5.083c0.032 0.186-0.164 0.328-0.331 0.24l-4.565-2.4c-0.066-0.035-0.146-0.035-0.212 0l-4.565 2.4c-0.167 0.088-0.363-0.054-0.331-0.24l0.872-5.083c0.013-0.074-0.012-0.149-0.066-0.202l-3.693-3.6c-0.135-0.132-0.061-0.362 0.126-0.389l5.104-0.742c0.074-0.011 0.138-0.057 0.172-0.125l2.282-4.625c0.085-0.17 0.326-0.17 0.41 0z" fill="#fff"/></g></svg><svg xmlns:xlink="http://www.w3.org/1999/xlink" enable-background="new 0 0 27.996 27.996" xml:space="preserve" height="32" width="32" version="1.1" y="256" x="0px" viewBox="-2 -2 31.996 31.996" id="icn_vocablist__popular_normal"><g id="icn_vocablist__popular_normal-Layer_8">		<circle cy="13.998" cx="13.998" r="13.998" fill="#B6C9E0"/>		<path d="m13.628 5.691l2.282 4.625c0.033 0.067 0.097 0.114 0.172 0.125l5.104 0.742c0.187 0.027 0.262 0.257 0.126 0.389l-3.693 3.6c-0.054 0.052-0.078 0.128-0.066 0.202l0.872 5.083c0.032 0.186-0.164 0.328-0.331 0.24l-4.565-2.4c-0.066-0.035-0.146-0.035-0.212 0l-4.565 2.4c-0.167 0.088-0.363-0.054-0.331-0.24l0.872-5.083c0.013-0.074-0.012-0.149-0.066-0.202l-3.693-3.6c-0.135-0.132-0.061-0.362 0.126-0.389l5.104-0.742c0.074-0.011 0.138-0.057 0.172-0.125l2.282-4.625c0.085-0.17 0.326-0.17 0.41 0z" fill="#fff"/></g></svg><svg xmlns:xlink="http://www.w3.org/1999/xlink" enable-background="new 0 0 12.567 17.52" xml:space="preserve" height="22" width="17" version="1.1" y="288" x="0px" viewBox="-2 -2 16.567 21.52" id="icn_vocablist__vocabAction_flashcards_gray"><g id="icn_vocablist__vocabAction_flashcards_gray-Layer_8">	<polygon points="12.567 0 1.481 8.59 5.268 9.865 0 17.52 10.609 8.89 7.279 7.524" fill="#999"/></g></svg><svg xmlns:xlink="http://www.w3.org/1999/xlink" enable-background="new 0 0 12.567 17.52" xml:space="preserve" height="22" width="17" version="1.1" y="310" x="0px" viewBox="-2 -2 16.567 21.52" id="icn_vocablist__vocabAction_flashcards_hover"><g id="icn_vocablist__vocabAction_flashcards_hover-Layer_8">	<polygon points="12.567 0 1.481 8.59 5.268 9.865 0 17.52 10.609 8.89 7.279 7.524" fill="#00ACED"/></g></svg><svg xmlns:xlink="http://www.w3.org/1999/xlink" enable-background="new 0 0 12.567 17.52" xml:space="preserve" height="22" width="17" version="1.1" y="332" x="0px" viewBox="-2 -2 16.567 21.52" id="icn_vocablist__vocabAction_flashcards_white"><g id="icn_vocablist__vocabAction_flashcards_white-Layer_8">	<polygon points="12.567 0 1.481 8.59 5.268 9.865 0 17.52 10.609 8.89 7.279 7.524" fill="#fff"/></g></svg><svg xmlns:xlink="http://www.w3.org/1999/xlink" enable-background="new 0 0 18.839 13.724" xml:space="preserve" height="18" width="23" version="1.1" y="354" x="0px" viewBox="-2 -2 22.839 17.724" id="icn_vocablist__vocabAction_playAudio_gray"><g id="icn_vocablist__vocabAction_playAudio_gray-Layer_8">			<path d="m16.485 1.428c-0.181-0.166-0.474-0.165-0.654 0-0.181 0.166-0.181 0.434 0 0.6 2.778 2.549 2.778 6.697 0 9.246-0.181 0.166-0.181 0.435 0 0.6 0.181 0.166 0.473 0.166 0.654 0 3.139-2.88 3.139-7.566 0-10.446zm-2.944 2.101c-0.181 0.166-0.181 0.435 0 0.6 1.515 1.39 1.515 3.653 0 5.043-0.181 0.166-0.181 0.435 0 0.601s0.474 0.166 0.655 0c1.876-1.722 1.876-4.523 0-6.244-0.182-0.166-0.474-0.166-0.655 0z" fill="#999"/>		<path fill="#999" clip-rule="evenodd" d="m9.704 0.043c-0.129-0.066-0.284-0.055-0.402 0.03l-5.848 4.199h-3.067c-0.214 0-0.387 0.174-0.387 0.388v4.405c0 0.214 0.173 0.388 0.387 0.388h3.067l5.847 4.199c0.067 0.048 0.146 0.073 0.226 0.073 0.06 0 0.121-0.014 0.177-0.043 0.129-0.066 0.21-0.2 0.21-0.345v-12.949c0-0.146-0.081-0.279-0.21-0.345z" fill-rule="evenodd"/></g></svg><svg xmlns:xlink="http://www.w3.org/1999/xlink" enable-background="new 0 0 18.839 13.724" xml:space="preserve" height="18" width="23" version="1.1" y="372" x="0px" viewBox="-2 -2 22.839 17.724" id="icn_vocablist__vocabAction_playAudio_hover"><g id="icn_vocablist__vocabAction_playAudio_hover-Layer_8">			<path d="m16.485 1.428c-0.181-0.166-0.474-0.165-0.654 0s-0.181 0.434 0 0.6c2.778 2.549 2.778 6.697 0 9.246-0.181 0.166-0.181 0.435 0 0.6 0.181 0.166 0.473 0.166 0.654 0 3.139-2.88 3.139-7.566 0-10.446zm-2.944 2.101c-0.181 0.166-0.181 0.435 0 0.6 1.515 1.39 1.515 3.653 0 5.043-0.181 0.166-0.181 0.435 0 0.601s0.474 0.166 0.655 0c1.876-1.722 1.876-4.523 0-6.244-0.182-0.166-0.474-0.166-0.655 0z" fill="#0070E0"/>		<path fill="#0070E0" clip-rule="evenodd" d="m9.704 0.043c-0.129-0.066-0.284-0.055-0.402 0.03l-5.848 4.199h-3.067c-0.214 0-0.387 0.173-0.387 0.388v4.405c0 0.214 0.173 0.388 0.387 0.388h3.067l5.847 4.199c0.067 0.048 0.146 0.073 0.226 0.073 0.06 0 0.121-0.014 0.177-0.043 0.129-0.066 0.21-0.2 0.21-0.345v-12.949c0-0.146-0.081-0.279-0.21-0.345z" fill-rule="evenodd"/></g></svg><svg xmlns:xlink="http://www.w3.org/1999/xlink" enable-background="new 0 0 18.839 13.724" xml:space="preserve" height="18" width="23" version="1.1" y="390" x="0px" viewBox="-2 -2 22.839 17.724" id="icn_vocablist__vocabAction_playAudio_white"><g id="icn_vocablist__vocabAction_playAudio_white-Layer_8">			<path d="m16.485 1.428c-0.181-0.166-0.474-0.165-0.654 0s-0.181 0.434 0 0.6c2.778 2.549 2.778 6.697 0 9.246-0.181 0.166-0.181 0.435 0 0.6 0.181 0.166 0.473 0.166 0.654 0 3.139-2.88 3.139-7.566 0-10.446zm-2.944 2.101c-0.181 0.166-0.181 0.435 0 0.6 1.515 1.39 1.515 3.653 0 5.043-0.181 0.166-0.181 0.435 0 0.601s0.474 0.166 0.655 0c1.876-1.722 1.876-4.523 0-6.244-0.182-0.166-0.474-0.166-0.655 0z" fill="#fff"/>		<path fill="#fff" clip-rule="evenodd" d="m9.704 0.043c-0.129-0.066-0.284-0.055-0.402 0.03l-5.848 4.199h-3.067c-0.214 0-0.387 0.174-0.387 0.388v4.405c0 0.214 0.173 0.388 0.387 0.388h3.067l5.847 4.199c0.067 0.048 0.146 0.073 0.226 0.073 0.06 0 0.121-0.014 0.177-0.043 0.129-0.066 0.21-0.2 0.21-0.345v-12.949c0-0.146-0.081-0.279-0.21-0.345z" fill-rule="evenodd"/></g></svg><svg xmlns:xlink="http://www.w3.org/1999/xlink" enable-background="new 0 0 16.364 16.364" xml:space="preserve" height="20" width="20" version="1.1" y="408" x="0px" viewBox="-2 -2 20.364 20.364" id="icn_vocablist__vocabAction_slideshow_gray"><g id="icn_vocablist__vocabAction_slideshow_gray-Layer_8">		<circle cy="8.182" cx="8.182" r="8.182" fill="#999"/>			<polygon points="7.152 5.801 7.152 10.563 10.623 8.182" fill="#fff"/></g></svg><svg xmlns:xlink="http://www.w3.org/1999/xlink" enable-background="new 0 0 16.364 16.364" xml:space="preserve" height="20" width="20" version="1.1" y="428" x="0px" viewBox="-2 -2 20.364 20.364" id="icn_vocablist__vocabAction_slideshow_hover"><g id="icn_vocablist__vocabAction_slideshow_hover-Layer_8">		<circle cy="8.182" cx="8.182" r="8.182" fill="#0070E0"/>			<polygon points="7.152 5.801 7.152 10.563 10.623 8.182" fill="#fff"/></g></svg><svg xmlns:xlink="http://www.w3.org/1999/xlink" enable-background="new 0 0 16.364 16.364" xml:space="preserve" height="20" width="20" version="1.1" y="448" x="0px" viewBox="-2 -2 20.364 20.364" id="icn_vocablist__vocabAction_slideshow_white"><g id="icn_vocablist__vocabAction_slideshow_white-Layer_8">		<circle cy="8.182" cx="8.182" r="8.182" fill="#fff"/>			<polygon points="7.152 5.801 7.152 10.563 10.623 8.182" fill="#999"/></g></svg></svg>
